# 3ds Max Wavefront OBJ Exporter v0.99 - (c)2007 guruware
# File Created: 30.10.2024 16:53:22

mtllib Dado4C.mtl

#
# object model_2
#

v  0.0454 8.8235 0.2256
v  5.5931 0.2528 3.4548
v  0.2273 8.8235 -0.0894
v  5.7750 0.2528 3.0610
v  0.2273 0.2528 -6.5478
v  -0.2274 8.8235 -0.0894
v  -0.2274 0.2528 -6.5478
v  -5.5022 0.0454 3.2186
v  5.5022 0.0454 3.2186
v  -5.5932 0.2528 3.4549
v  0.0454 0.0454 -6.3903
v  -5.7751 0.2528 3.0610
# 12 vertices

vn 0.6923 0.6008 0.3997
vn -0.0000 0.6008 -0.7994
vn 0.0000 -0.7765 0.6301
vn 0.5444 -0.7765 -0.3172
vn -0.6923 0.6008 0.3997
vn -0.5444 -0.7765 -0.3172
vn -0.0000 -1.0000 -0.0000
vn -0.0038 0.3527 0.9357
vn 0.8110 0.3527 -0.4668
vn -0.8110 0.3527 -0.4668
vn -0.6689 -0.6351 0.3862
vn 0.6689 -0.6351 0.3862
vn -0.0000 -0.6351 -0.7724
vn 0.0000 1.0000 0.0000
# 14 vertex normals

vt 0.4999 0.9923 0.0000
vt 0.7401 0.5151 0.0000
vt 0.4991 0.9925 0.0000
vt 0.7384 0.5066 0.0000
vt 0.4994 0.9905 0.0000
vt 0.2494 0.5023 0.0000
vt 0.2484 0.5027 0.0000
vt 0.4941 0.9928 0.0000
vt 0.2562 0.4945 0.0000
vt 0.7473 0.5000 0.0000
vt 0.2557 0.4954 0.0000
vt 0.7468 0.5003 0.0000
vt 0.5120 0.0076 0.0000
vt 0.7471 0.4996 0.0000
vt 0.5044 0.0137 0.0000
vt 0.7473 0.5012 0.0000
vt 0.2441 0.5045 0.0000
vt 0.4974 0.9890 0.0000
vt 0.2425 0.5077 0.0000
vt 0.4795 0.9727 0.0000
vt 0.2557 0.4958 0.0000
vt 0.4972 0.0071 0.0000
vt 0.2549 0.4949 0.0000
vt 0.2514 0.5003 0.0000
vt 0.7370 0.5051 0.0000
vt 0.4980 0.9909 0.0000
vt 0.7489 0.5043 0.0000
vt 0.9936 0.9926 0.0000
vt 0.4971 0.9893 0.0000
vt 0.0043 0.9913 0.0000
vt 0.2477 0.5038 0.0000
vt 0.4977 0.9908 0.0000
vt 0.2563 0.4961 0.0000
vt 0.2557 0.4967 0.0000
vt 0.7470 0.5009 0.0000
vt 0.7469 0.5008 0.0000
vt 0.4917 0.9960 0.0000
vt 0.4936 0.9930 0.0000
vt 0.5051 0.9930 0.0000
# 39 texture coords

o model_2
g model_2
usemtl default
f 1/1/1 2/2/1 3/3/1 
f 2/2/1 4/4/1 3/3/1 
f 3/5/2 5/6/2 6/7/2 
f 5/6/2 7/8/2 6/7/2 
f 8/9/3 9/10/3 10/11/3 
f 9/10/3 2/12/3 10/11/3 
f 5/13/4 4/14/4 11/15/4 
f 4/14/4 9/16/4 11/15/4 
f 10/17/5 1/18/5 12/19/5 
f 1/18/5 6/20/5 12/19/5 
f 11/15/6 8/21/6 7/22/6 
f 8/21/6 12/21/6 7/22/6 
f 8/23/7 11/15/7 9/16/7 
f 10/24/8 2/25/8 1/26/8 
f 4/27/9 5/28/9 3/29/9 
f 7/30/10 12/31/10 6/32/10 
f 12/33/11 8/23/11 10/34/11 
f 2/35/12 9/16/12 4/36/12 
f 5/13/13 11/15/13 7/22/13 
f 6/37/14 1/38/14 3/39/14 
# 20 faces

