# 3ds Max Wavefront OBJ Exporter v0.99 - (c)2007 guruware
# File Created: 01.11.2024 13:30:58

mtllib Musket.mtl

#
# object M_U_S_K_E_T
#

v  -0.1211 1.7732 -0.2264
v  -0.3934 0.5255 -0.2976
v  -0.5960 1.4978 -0.2152
v  -0.5889 1.5035 0.2254
v  -0.3832 0.5336 0.3264
v  -0.2485 0.2017 -0.2556
v  -0.1140 1.7789 0.2141
v  -0.2396 0.2088 0.2881
v  0.3262 0.7790 -0.3127
v  0.3364 0.7871 0.3114
v  0.4242 0.4472 0.2741
v  0.4151 0.4403 -0.2696
v  0.3405 0.1756 0.2036
v  0.3341 0.1707 -0.1895
v  -0.0034 0.0367 0.2112
v  -0.0100 0.0317 -0.1819
v  1.7211 3.8940 -0.0204
v  1.0578 3.5212 0.3137
v  1.2109 3.3161 0.2079
v  1.2708 3.2284 -0.0477
v  1.6327 4.0125 0.0405
v  0.9012 3.7236 0.2077
v  1.6817 3.9408 -0.1682
v  1.2025 3.3094 -0.3036
v  1.0459 3.5118 -0.4096
v  1.5932 4.0593 -0.1071
v  0.8328 3.8045 -0.0481
v  0.8927 3.7169 -0.3038
v  0.9066 2.8785 -0.4563
v  1.0455 3.5101 -0.6183
v  1.2924 3.1913 -0.4511
v  0.6502 3.2098 -0.6299
v  1.0186 2.7457 -0.0373
v  1.4000 3.0634 -0.0477
v  0.8041 3.8334 -0.4514
v  1.3056 3.2017 0.3553
v  1.0642 3.5250 0.5222
v  0.8172 3.8440 0.3550
v  0.3996 3.5456 -0.4566
v  0.7097 3.9717 -0.0482
v  0.3014 3.6892 -0.0378
v  0.4133 3.5564 0.3809
v  0.9205 2.8893 0.3814
v  0.6697 3.2252 0.5547
v  0.6580 3.2170 -0.5489
v  0.1728 2.8480 -0.7322
v  0.4417 3.5066 -0.3993
v  -0.1264 3.2489 -0.5254
v  0.3570 3.6305 -0.0379
v  0.4789 2.4525 -0.5249
v  0.8791 2.9311 -0.3991
v  -0.2436 3.4202 -0.0254
v  0.4535 3.5159 0.3234
v  0.6124 2.2942 -0.0249
v  0.9758 2.8166 -0.0376
v  -0.1100 3.2619 0.4745
v  0.6748 3.2301 0.4732
v  0.4953 2.4655 0.4749
v  0.8911 2.9405 0.3236
v  0.1961 2.8664 0.6819
v  -0.0576 1.6986 -0.0061
v  -0.1861 1.8866 0.5420
v  -0.5145 2.3263 0.7689
v  -0.8501 2.7601 0.5416
v  -0.9967 2.9339 -0.0070
v  -0.8681 2.7459 -0.5550
v  -0.5398 2.3062 -0.7820
v  -0.2042 1.8724 -0.5546
v  -0.7146 1.5594 0.4957
v  -1.0074 1.9516 0.6981
v  -1.3068 2.3383 0.4953
v  -1.4102 2.1258 0.3930
v  -1.1762 1.8232 0.5516
v  -1.5124 2.2468 0.0104
v  -1.4376 2.4934 0.0060
v  -1.4227 2.1158 -0.3719
v  -1.3229 2.3256 -0.4830
v  -1.1937 1.8091 -0.5301
v  -1.0302 1.9336 -0.6854
v  -0.9472 1.5166 0.3934
v  -0.9597 1.5066 -0.3715
v  -0.7307 1.5467 -0.4825
v  -0.8575 1.3855 0.0110
v  -0.6000 1.3917 0.0065
# 84 vertices

vn -0.0864 0.9275 -0.3637
vn -0.6223 0.6828 -0.3828
vn -0.6004 0.7606 -0.2468
vn -0.5485 0.7546 0.3600
vn -0.6010 0.7076 0.3717
vn -0.9670 -0.1506 0.2052
vn -0.0041 0.9747 0.2236
vn -0.7158 0.4351 0.5462
vn 0.0181 -0.5445 -0.8386
vn -0.2311 -0.0882 0.9689
vn 0.3383 0.7697 0.5415
vn 0.3084 0.7653 -0.5650
vn 0.9234 -0.3415 -0.1755
vn 0.7450 0.1611 -0.6473
vn 0.7856 -0.4377 0.4374
vn -0.0584 -0.9013 0.4290
vn 0.3304 -0.5681 0.7538
vn -0.0981 0.0331 0.9946
vn 0.3460 -0.6065 0.7159
vn 0.5393 -0.8375 0.0877
vn -0.2449 0.0885 0.9655
vn -0.4390 0.4728 0.7641
vn 0.7112 0.6672 0.2217
vn 0.3355 -0.6413 -0.6900
vn -0.0276 -0.1287 -0.9913
vn 0.4345 0.6413 0.6324
vn -0.6860 0.7274 0.0165
vn -0.5155 0.4776 -0.7114
vn -0.1235 -0.6771 -0.7255
vn 0.7057 0.1656 -0.6889
vn 0.6448 -0.3536 -0.6776
vn -0.2278 -0.1736 -0.9581
vn -0.0929 -0.9516 -0.2929
vn 0.8861 -0.4634 -0.0085
vn 0.3045 0.6899 -0.6568
vn 0.9595 -0.1361 0.2468
vn 0.7311 0.1785 0.6584
vn 0.3867 0.6320 0.6716
vn -0.6829 0.3162 -0.6584
vn 0.1409 0.9154 -0.3770
vn -0.8351 0.5502 0.0066
vn -0.9153 0.1556 0.3716
vn -0.3897 -0.6398 0.6624
vn -0.1960 -0.1484 0.9693
vn 0.4910 0.4340 -0.7554
vn 0.2990 0.4995 -0.8131
vn 0.1865 0.8432 -0.5042
vn 0.1395 0.8082 -0.5721
vn 0.0848 0.9957 0.0346
vn 0.3252 -0.1254 -0.9373
vn 0.8199 0.0074 -0.5725
vn 0.0083 0.9998 -0.0130
vn 0.2450 0.8022 0.5445
vn 0.6800 -0.5754 -0.4544
vn 0.9806 -0.1859 -0.0624
vn 0.1578 0.8227 0.5462
vn 0.5743 0.3758 0.7273
vn 0.7309 -0.6167 0.2923
vn 0.8786 -0.0337 0.4763
vn 0.5000 0.3804 0.7780
vn 0.8371 -0.4957 -0.2312
vn 0.7847 -0.4024 0.4715
vn 0.4456 0.0580 0.8934
vn 0.0185 0.6160 0.7875
vn -0.5554 0.6956 0.4556
vn -0.6051 0.7347 -0.3069
vn -0.3145 0.3323 -0.8892
vn 0.1459 -0.2752 -0.9502
vn 0.5771 -0.7102 0.4031
vn 0.2510 -0.2631 0.9315
vn -0.4044 -0.0519 0.9131
vn -0.4698 -0.4201 0.7765
vn -0.1295 -0.8500 0.5108
vn -0.8283 -0.2370 0.5077
vn -0.7626 0.4050 0.5044
vn -0.9394 -0.2160 0.2659
vn -0.8479 0.4928 -0.1957
vn -0.7918 -0.6019 0.1039
vn -0.6100 0.1600 -0.7760
vn -0.7418 -0.2978 0.6009
vn -0.4620 -0.8515 0.2478
vn -0.1886 -0.3986 -0.8975
vn -0.4497 -0.7352 0.5073
vn -0.0456 -0.9131 0.4052
# 84 vertex normals

vt 0.9973 0.4105 0.0000
vt 0.4893 0.0045 0.0000
vt 0.9937 0.0045 0.0000
vt 0.9961 0.2036 0.0000
vt 0.4907 0.1554 0.0000
vt 0.9961 0.0055 0.0000
vt 0.4907 0.0045 0.0000
vt 0.3129 0.1421 0.0000
vt 0.9975 0.4105 0.0000
vt 0.9939 0.0045 0.0000
vt 0.4895 0.0045 0.0000
vt 0.3129 0.0049 0.0000
vt 0.3129 0.0045 0.0000
vt 0.4971 0.4106 0.0000
vt 0.4972 0.4106 0.0000
vt 0.3130 0.4097 0.0000
vt 0.9948 0.0055 0.0000
vt 0.9948 0.2036 0.0000
vt 0.4906 0.1554 0.0000
vt 0.4906 0.0045 0.0000
vt 0.3130 0.4096 0.0000
vt 0.3150 0.0071 0.0000
vt 0.0094 0.0071 0.0000
vt 0.0096 0.1014 0.0000
vt 0.2338 0.1014 0.0000
vt 0.2344 0.1038 0.0000
vt 0.2344 0.3209 0.0000
vt 0.3152 0.4096 0.0000
vt 0.3152 0.0045 0.0000
vt 0.3150 0.0045 0.0000
vt 0.0096 0.1038 0.0000
vt 0.0094 0.0065 0.0000
vt 0.2338 0.1038 0.0000
vt 0.0096 0.3209 0.0000
vt 0.2338 0.3209 0.0000
vt 0.3150 0.4096 0.0000
vt 0.8006 0.6744 0.0000
vt 0.3173 0.7191 0.0000
vt 0.3173 0.6097 0.0000
vt 0.3173 0.5645 0.0000
vt 0.8006 0.7376 0.0000
vt 0.3173 0.8284 0.0000
vt 0.0929 0.4389 0.0000
vt 0.0181 0.5253 0.0000
vt 0.0187 0.4401 0.0000
vt 0.8006 0.7006 0.0000
vt 0.0923 0.5241 0.0000
vt 0.8006 0.7637 0.0000
vt 0.3173 0.8737 0.0000
vt 0.3101 0.5281 0.0000
vt 0.1182 0.6988 0.0000
vt 0.1182 0.5280 0.0000
vt 0.3101 0.6988 0.0000
vt 0.3101 0.4284 0.0000
vt 0.1182 0.4287 0.0000
vt 0.0477 0.6262 0.0000
vt 0.0514 0.7567 0.0000
vt 0.0477 0.5504 0.0000
vt 0.1182 0.8688 0.0000
vt 0.0521 0.8865 0.0000
vt 0.0502 0.6262 0.0000
vt 0.0552 0.8865 0.0000
vt 0.3101 0.8680 0.0000
vt 0.1182 0.9965 0.0000
vt 0.0552 0.9841 0.0000
vt 0.3189 0.6988 0.0000
vt 0.3189 0.5281 0.0000
vt 0.3189 0.8680 0.0000
vt 0.3101 0.9959 0.0000
vt 0.3189 0.9959 0.0000
vt 0.3189 0.4284 0.0000
vt 0.3142 0.7179 0.0000
vt 0.4860 0.7179 0.0000
vt 0.3142 0.8495 0.0000
vt 0.4860 0.9001 0.0000
vt 0.3142 0.9041 0.0000
vt 0.4860 0.5357 0.0000
vt 0.3142 0.5862 0.0000
vt 0.4860 0.9755 0.0000
vt 0.4860 0.4602 0.0000
vt 0.3142 0.5317 0.0000
vt 0.7496 0.4353 0.0000
vt 0.7496 0.5181 0.0000
vt 0.7496 0.7179 0.0000
vt 0.7496 0.9177 0.0000
vt 0.7496 0.9949 0.0000
vt 0.9317 0.5397 0.0000
vt 0.9317 0.7179 0.0000
vt 0.9317 0.8961 0.0000
vt 0.9933 0.8572 0.0000
vt 0.9933 0.7179 0.0000
vt 0.9933 0.9150 0.0000
vt 0.9317 0.9699 0.0000
vt 0.9933 0.5785 0.0000
vt 0.9933 0.5208 0.0000
vt 0.9317 0.4658 0.0000
# 96 texture coords

o M_U_S_K_E_T
g M_U_S_K_E_T
usemtl Mesh_0002_rip
f 1/1/1 2/2/2 3/3/3 
f 3/4/3 2/5/2 4/6/4 
f 2/5/2 5/7/5 4/6/4 
f 2/5/2 6/8/6 5/7/5 
f 7/9/7 4/10/4 5/11/5 
f 6/8/6 8/12/8 5/7/5 
f 6/13/6 2/2/2 9/14/9 
f 1/1/1 9/14/9 2/2/2 
f 10/15/10 5/11/5 8/13/8 
f 5/11/5 10/15/10 7/9/7 
f 8/13/8 11/16/11 10/15/10 
f 1/17/1 7/18/7 10/19/10 
f 9/20/9 1/17/1 10/19/10 
f 12/12/12 9/20/9 10/19/10 
f 12/12/12 10/19/10 11/8/11 
f 6/13/6 9/14/9 12/21/12 
f 12/22/12 11/23/11 13/24/13 
f 14/25/14 12/22/12 13/24/13 
f 15/26/15 13/27/13 11/28/11 
f 11/28/11 8/29/8 15/26/15 
f 6/30/6 15/31/15 8/32/8 
f 6/30/6 16/33/16 15/31/15 
f 16/33/16 13/34/13 15/31/15 
f 16/33/16 14/35/14 13/34/13 
f 16/33/16 12/36/12 14/35/14 
f 12/36/12 16/33/16 6/30/6 
f 17/37/17 18/38/18 19/39/19 
f 17/37/17 19/39/19 20/40/20 
f 21/41/21 18/38/18 17/37/17 
f 21/41/21 22/42/22 18/38/18 
f 23/43/23 21/44/21 17/45/17 
f 17/37/17 20/40/20 23/46/23 
f 23/46/23 20/40/20 24/39/24 
f 23/46/23 24/39/24 25/38/25 
f 21/44/21 23/43/23 26/47/26 
f 21/41/21 26/48/26 22/42/22 
f 23/46/23 25/38/25 26/48/26 
f 26/48/26 27/49/27 22/42/22 
f 26/48/26 25/38/25 28/42/28 
f 26/48/26 28/42/28 27/49/27 
f 29/50/29 30/51/30 31/52/31 
f 32/53/32 30/51/30 29/50/29 
f 29/50/29 31/52/31 33/54/33 
f 33/54/33 31/52/31 34/55/34 
f 31/56/31 30/57/30 34/58/34 
f 32/53/32 35/59/35 30/51/30 
f 30/57/30 35/60/35 34/58/34 
f 34/58/34 35/60/35 36/61/36 
f 37/57/37 36/61/36 35/60/35 
f 38/62/38 37/57/37 35/60/35 
f 39/63/39 35/59/35 32/53/32 
f 39/63/39 40/64/40 35/59/35 
f 40/65/40 38/62/38 35/60/35 
f 32/66/32 29/67/29 39/68/39 
f 41/69/41 40/64/40 39/63/39 
f 39/68/39 29/67/29 41/70/41 
f 41/69/41 38/59/38 40/64/40 
f 41/70/41 29/67/29 42/68/42 
f 33/71/33 42/68/42 29/67/29 
f 42/63/42 38/59/38 41/69/41 
f 42/63/42 37/51/37 38/59/38 
f 43/67/43 42/68/42 33/71/33 
f 44/53/44 37/51/37 42/63/42 
f 44/66/44 42/68/42 43/67/43 
f 44/53/44 36/52/36 37/51/37 
f 43/50/43 36/52/36 44/53/44 
f 33/54/33 34/55/34 43/50/43 
f 43/50/43 34/55/34 36/52/36 
f 45/72/45 46/73/46 47/74/47 
f 47/74/47 46/73/46 48/75/48 
f 47/74/47 48/75/48 49/76/49 
f 45/72/45 50/77/50 46/73/46 
f 51/78/51 50/77/50 45/72/45 
f 49/76/49 48/75/48 52/79/52 
f 49/76/49 52/79/52 53/74/53 
f 51/78/51 54/80/54 50/77/50 
f 55/81/55 54/80/54 51/78/51 
f 53/74/53 52/79/52 56/75/56 
f 53/74/53 56/75/56 57/72/57 
f 55/81/55 58/77/58 54/80/54 
f 59/78/59 58/77/58 55/81/55 
f 57/72/57 56/75/56 60/73/60 
f 59/78/59 60/73/60 58/77/58 
f 57/72/57 60/73/60 59/78/59 
f 54/80/54 61/82/61 50/77/50 
f 58/77/58 62/83/62 54/80/54 
f 54/80/54 62/83/62 61/82/61 
f 60/73/60 63/84/63 58/77/58 
f 58/77/58 63/84/63 62/83/62 
f 56/75/56 64/85/64 60/73/60 
f 60/73/60 64/85/64 63/84/63 
f 56/75/56 65/86/65 64/85/64 
f 52/79/52 65/86/65 56/75/56 
f 52/79/52 66/85/66 65/86/65 
f 48/75/48 66/85/66 52/79/52 
f 48/75/48 67/84/67 66/85/66 
f 46/73/46 67/84/67 48/75/48 
f 46/73/46 68/83/68 67/84/67 
f 50/77/50 68/83/68 46/73/46 
f 50/77/50 61/82/61 68/83/68 
f 62/83/62 69/87/69 61/82/61 
f 63/84/63 70/88/70 62/83/62 
f 62/83/62 70/88/70 69/87/69 
f 63/84/63 71/89/71 70/88/70 
f 64/85/64 71/89/71 63/84/63 
f 71/89/71 72/90/72 70/88/70 
f 70/88/70 73/91/73 69/87/69 
f 70/88/70 72/90/72 73/91/73 
f 71/89/71 74/92/74 72/90/72 
f 64/85/64 75/93/75 71/89/71 
f 75/93/75 74/92/74 71/89/71 
f 65/86/65 75/93/75 64/85/64 
f 72/90/72 74/92/74 76/90/76 
f 73/91/73 72/90/72 76/90/76 
f 75/93/75 76/90/76 74/92/74 
f 65/86/65 77/89/77 75/93/75 
f 77/89/77 76/90/76 75/93/75 
f 66/85/66 77/89/77 65/86/65 
f 73/91/73 76/90/76 78/91/78 
f 77/89/77 78/91/78 76/90/76 
f 66/85/66 79/88/79 77/89/77 
f 79/88/79 78/91/78 77/89/77 
f 67/84/67 79/88/79 66/85/66 
f 78/91/78 80/94/80 73/91/73 
f 69/87/69 73/91/73 80/94/80 
f 81/94/81 80/94/80 78/91/78 
f 79/88/79 81/94/81 78/91/78 
f 67/84/67 82/87/82 79/88/79 
f 82/87/82 81/94/81 79/88/79 
f 68/83/68 82/87/82 67/84/67 
f 83/95/83 80/94/80 81/94/81 
f 82/87/82 83/95/83 81/94/81 
f 84/96/84 80/94/80 83/95/83 
f 69/87/69 80/94/80 84/96/84 
f 68/83/68 84/96/84 82/87/82 
f 84/96/84 83/95/83 82/87/82 
f 61/82/61 69/87/69 84/96/84 
f 61/82/61 84/96/84 68/83/68 
# 138 faces

