# 3ds Max Wavefront OBJ Exporter v0.99 - (c)2007 guruware
# File Created: 19.10.2024 21:53:01

mtllib Tablero.mtl

#
# object Box001
#

v  -29.3769 0.0000 29.7881
v  28.3677 0.0000 -30.2165
v  28.3677 0.0000 29.7881
v  -29.3769 1.2771 29.7881
v  28.3677 1.2771 -30.2165
v  -29.3769 1.2771 -30.2165
v  28.3677 1.2771 29.7881
v  -29.3769 0.0000 -30.2165
# 8 vertices

vn 0.0000 -1.0000 -0.0000
vn 0.0000 1.0000 -0.0000
vn 0.0000 0.0000 1.0000
vn 1.0000 0.0000 -0.0000
vn 0.0000 0.0000 -1.0000
vn -1.0000 0.0000 -0.0000
# 6 vertex normals

vt 1.0023 0.0054 0.0000
vt 0.0023 1.0054 0.0000
vt 0.0023 0.0054 0.0000
vt 1.0023 1.0054 0.0000
# 4 texture coords

o Box001
g Box001
usemtl Material__26
s 2
f 1/1/1 2/2/1 3/3/1 
s 4
f 4/3/2 5/4/2 6/2/2 
s 8
f 1/3/3 7/4/3 4/2/3 
s 16
f 3/3/4 5/4/4 7/2/4 
s 32
f 2/3/5 6/4/5 5/2/5 
s 64
f 8/3/6 4/4/6 6/2/6 
s 2
f 1/1/1 8/4/1 2/2/1 
s 4
f 4/3/2 7/1/2 5/4/2 
s 8
f 1/3/3 3/1/3 7/4/3 
s 16
f 3/3/4 2/1/4 5/4/4 
s 32
f 2/3/5 8/1/5 6/4/5 
s 64
f 8/3/6 1/1/6 4/4/6 
# 12 faces

